<mxfile host="app.diagrams.net" modified="2023-11-17T18:57:04.540Z" agent="Mozilla/5.0 (Macintosh; Intel Mac OS X 10_15_7) AppleWebKit/537.36 (KHTML, like Gecko) Chrome/119.0.0.0 Safari/537.36" etag="-MVR3Y2MRfKiGtQX8kzL" version="22.1.3" type="github" pages="2">
  <diagram id="C5RBs43oDa-KdzZeNtuy" name="Page-1">
    <mxGraphModel dx="984" dy="554" grid="1" gridSize="10" guides="1" tooltips="1" connect="1" arrows="1" fold="1" page="1" pageScale="1" pageWidth="827" pageHeight="1169" math="0" shadow="0">
      <root>
        <mxCell id="WIyWlLk6GJQsqaUBKTNV-0" />
        <mxCell id="WIyWlLk6GJQsqaUBKTNV-1" parent="WIyWlLk6GJQsqaUBKTNV-0" />
        <mxCell id="WIyWlLk6GJQsqaUBKTNV-2" value="" style="rounded=0;html=1;jettySize=auto;orthogonalLoop=1;fontSize=11;endArrow=block;endFill=0;endSize=8;strokeWidth=1;shadow=0;labelBackgroundColor=none;edgeStyle=orthogonalEdgeStyle;" parent="WIyWlLk6GJQsqaUBKTNV-1" edge="1">
          <mxGeometry relative="1" as="geometry">
            <mxPoint x="220" y="120" as="sourcePoint" />
            <mxPoint x="220" y="170" as="targetPoint" />
          </mxGeometry>
        </mxCell>
        <mxCell id="lIkqTm4wYKuDCw4-Z7o2-15" value="" style="edgeStyle=orthogonalEdgeStyle;rounded=0;orthogonalLoop=1;jettySize=auto;html=1;" parent="WIyWlLk6GJQsqaUBKTNV-1" target="lIkqTm4wYKuDCw4-Z7o2-14" edge="1">
          <mxGeometry relative="1" as="geometry">
            <mxPoint x="220" y="230" as="sourcePoint" />
          </mxGeometry>
        </mxCell>
        <mxCell id="lIkqTm4wYKuDCw4-Z7o2-17" value="" style="edgeStyle=orthogonalEdgeStyle;rounded=0;orthogonalLoop=1;jettySize=auto;html=1;" parent="WIyWlLk6GJQsqaUBKTNV-1" source="lIkqTm4wYKuDCw4-Z7o2-14" target="lIkqTm4wYKuDCw4-Z7o2-16" edge="1">
          <mxGeometry relative="1" as="geometry" />
        </mxCell>
        <mxCell id="lIkqTm4wYKuDCw4-Z7o2-14" value="sum = a+b" style="rounded=0;whiteSpace=wrap;html=1;" parent="WIyWlLk6GJQsqaUBKTNV-1" vertex="1">
          <mxGeometry x="160" y="310" width="120" height="60" as="geometry" />
        </mxCell>
        <mxCell id="lIkqTm4wYKuDCw4-Z7o2-19" value="" style="edgeStyle=orthogonalEdgeStyle;rounded=0;orthogonalLoop=1;jettySize=auto;html=1;" parent="WIyWlLk6GJQsqaUBKTNV-1" source="lIkqTm4wYKuDCw4-Z7o2-16" target="lIkqTm4wYKuDCw4-Z7o2-18" edge="1">
          <mxGeometry relative="1" as="geometry" />
        </mxCell>
        <mxCell id="lIkqTm4wYKuDCw4-Z7o2-16" value="avg = (a+b)/2" style="rounded=0;whiteSpace=wrap;html=1;" parent="WIyWlLk6GJQsqaUBKTNV-1" vertex="1">
          <mxGeometry x="160" y="450" width="120" height="60" as="geometry" />
        </mxCell>
        <mxCell id="lIkqTm4wYKuDCw4-Z7o2-23" value="" style="edgeStyle=orthogonalEdgeStyle;rounded=0;orthogonalLoop=1;jettySize=auto;html=1;" parent="WIyWlLk6GJQsqaUBKTNV-1" source="lIkqTm4wYKuDCw4-Z7o2-18" target="lIkqTm4wYKuDCw4-Z7o2-22" edge="1">
          <mxGeometry relative="1" as="geometry" />
        </mxCell>
        <mxCell id="lIkqTm4wYKuDCw4-Z7o2-18" value="product = a*b" style="rounded=0;whiteSpace=wrap;html=1;" parent="WIyWlLk6GJQsqaUBKTNV-1" vertex="1">
          <mxGeometry x="160" y="590" width="120" height="60" as="geometry" />
        </mxCell>
        <mxCell id="lIkqTm4wYKuDCw4-Z7o2-25" value="" style="edgeStyle=orthogonalEdgeStyle;rounded=0;orthogonalLoop=1;jettySize=auto;html=1;" parent="WIyWlLk6GJQsqaUBKTNV-1" source="lIkqTm4wYKuDCw4-Z7o2-22" target="lIkqTm4wYKuDCw4-Z7o2-24" edge="1">
          <mxGeometry relative="1" as="geometry" />
        </mxCell>
        <mxCell id="lIkqTm4wYKuDCw4-Z7o2-22" value="print sum" style="shape=parallelogram;perimeter=parallelogramPerimeter;whiteSpace=wrap;html=1;fixedSize=1;rounded=0;" parent="WIyWlLk6GJQsqaUBKTNV-1" vertex="1">
          <mxGeometry x="160" y="710" width="120" height="60" as="geometry" />
        </mxCell>
        <mxCell id="lIkqTm4wYKuDCw4-Z7o2-27" value="" style="edgeStyle=orthogonalEdgeStyle;rounded=0;orthogonalLoop=1;jettySize=auto;html=1;" parent="WIyWlLk6GJQsqaUBKTNV-1" source="lIkqTm4wYKuDCw4-Z7o2-24" target="lIkqTm4wYKuDCw4-Z7o2-26" edge="1">
          <mxGeometry relative="1" as="geometry" />
        </mxCell>
        <mxCell id="lIkqTm4wYKuDCw4-Z7o2-24" value="print avg" style="shape=parallelogram;perimeter=parallelogramPerimeter;whiteSpace=wrap;html=1;fixedSize=1;rounded=0;" parent="WIyWlLk6GJQsqaUBKTNV-1" vertex="1">
          <mxGeometry x="160" y="830" width="120" height="60" as="geometry" />
        </mxCell>
        <mxCell id="lIkqTm4wYKuDCw4-Z7o2-29" value="" style="edgeStyle=orthogonalEdgeStyle;rounded=0;orthogonalLoop=1;jettySize=auto;html=1;" parent="WIyWlLk6GJQsqaUBKTNV-1" source="lIkqTm4wYKuDCw4-Z7o2-26" edge="1">
          <mxGeometry relative="1" as="geometry">
            <mxPoint x="220" y="1040" as="targetPoint" />
          </mxGeometry>
        </mxCell>
        <mxCell id="lIkqTm4wYKuDCw4-Z7o2-26" value="print product" style="shape=parallelogram;perimeter=parallelogramPerimeter;whiteSpace=wrap;html=1;fixedSize=1;rounded=0;" parent="WIyWlLk6GJQsqaUBKTNV-1" vertex="1">
          <mxGeometry x="160" y="930" width="120" height="60" as="geometry" />
        </mxCell>
        <mxCell id="KOZ0NTwRWN2KKH82HfEo-0" value="Question 3" style="text;html=1;align=center;verticalAlign=middle;resizable=0;points=[];autosize=1;strokeColor=none;fillColor=none;" parent="WIyWlLk6GJQsqaUBKTNV-1" vertex="1">
          <mxGeometry x="500" y="28" width="80" height="30" as="geometry" />
        </mxCell>
        <mxCell id="41QDC_9yCXL4sJfb3tZP-0" value="Start" style="ellipse;whiteSpace=wrap;html=1;" parent="WIyWlLk6GJQsqaUBKTNV-1" vertex="1">
          <mxGeometry x="160" y="40" width="120" height="80" as="geometry" />
        </mxCell>
        <mxCell id="41QDC_9yCXL4sJfb3tZP-1" value="End" style="ellipse;whiteSpace=wrap;html=1;" parent="WIyWlLk6GJQsqaUBKTNV-1" vertex="1">
          <mxGeometry x="160" y="1040" width="120" height="80" as="geometry" />
        </mxCell>
        <mxCell id="wVtHDmDNhqxYyLLftGaj-0" value="input a,b" style="shape=parallelogram;perimeter=parallelogramPerimeter;whiteSpace=wrap;html=1;fixedSize=1;" vertex="1" parent="WIyWlLk6GJQsqaUBKTNV-1">
          <mxGeometry x="160" y="170" width="120" height="60" as="geometry" />
        </mxCell>
      </root>
    </mxGraphModel>
  </diagram>
  <diagram id="RnmIttfISFA9bSIVw_ve" name="Page-2">
    <mxGraphModel dx="984" dy="554" grid="1" gridSize="10" guides="1" tooltips="1" connect="1" arrows="1" fold="1" page="1" pageScale="1" pageWidth="827" pageHeight="1169" math="0" shadow="0">
      <root>
        <mxCell id="0" />
        <mxCell id="1" parent="0" />
        <mxCell id="Eb7WX1rXKMW9q2M_iWfD-5" value="" style="edgeStyle=orthogonalEdgeStyle;rounded=0;orthogonalLoop=1;jettySize=auto;html=1;" parent="1" edge="1">
          <mxGeometry relative="1" as="geometry">
            <mxPoint x="160" y="100" as="sourcePoint" />
            <mxPoint x="160" y="150" as="targetPoint" />
          </mxGeometry>
        </mxCell>
        <mxCell id="Eb7WX1rXKMW9q2M_iWfD-7" value="" style="edgeStyle=orthogonalEdgeStyle;rounded=0;orthogonalLoop=1;jettySize=auto;html=1;" parent="1" edge="1">
          <mxGeometry relative="1" as="geometry">
            <mxPoint x="160" y="240" as="targetPoint" />
            <mxPoint x="160" y="210" as="sourcePoint" />
          </mxGeometry>
        </mxCell>
        <mxCell id="Kxdl4N7MH4kUftBAl9yi-1" value="" style="edgeStyle=orthogonalEdgeStyle;rounded=0;orthogonalLoop=1;jettySize=auto;html=1;" parent="1" source="Eb7WX1rXKMW9q2M_iWfD-8" target="Eb7WX1rXKMW9q2M_iWfD-10" edge="1">
          <mxGeometry relative="1" as="geometry" />
        </mxCell>
        <mxCell id="Wyx_gIMBAFCTTK3UyjWR-1" style="edgeStyle=orthogonalEdgeStyle;rounded=0;orthogonalLoop=1;jettySize=auto;html=1;entryX=0;entryY=0.5;entryDx=0;entryDy=0;" parent="1" source="Eb7WX1rXKMW9q2M_iWfD-8" target="7iwfmCRwSoaIV7nrB65S-1" edge="1">
          <mxGeometry relative="1" as="geometry" />
        </mxCell>
        <mxCell id="Eb7WX1rXKMW9q2M_iWfD-8" value="a%2 = 0" style="rhombus;whiteSpace=wrap;html=1;" parent="1" vertex="1">
          <mxGeometry x="120" y="240" width="80" height="80" as="geometry" />
        </mxCell>
        <mxCell id="7iwfmCRwSoaIV7nrB65S-3" value="" style="edgeStyle=orthogonalEdgeStyle;rounded=0;orthogonalLoop=1;jettySize=auto;html=1;" parent="1" source="Eb7WX1rXKMW9q2M_iWfD-10" edge="1">
          <mxGeometry relative="1" as="geometry">
            <mxPoint x="300" y="420" as="targetPoint" />
          </mxGeometry>
        </mxCell>
        <mxCell id="Eb7WX1rXKMW9q2M_iWfD-10" value="print a is even" style="shape=parallelogram;perimeter=parallelogramPerimeter;whiteSpace=wrap;html=1;fixedSize=1;" parent="1" vertex="1">
          <mxGeometry x="100" y="350" width="120" height="60" as="geometry" />
        </mxCell>
        <mxCell id="Kxdl4N7MH4kUftBAl9yi-2" value="Yes" style="text;html=1;align=center;verticalAlign=middle;resizable=0;points=[];autosize=1;strokeColor=none;fillColor=none;" parent="1" vertex="1">
          <mxGeometry x="160" y="310" width="40" height="30" as="geometry" />
        </mxCell>
        <mxCell id="7iwfmCRwSoaIV7nrB65S-1" value="print a is odd" style="shape=parallelogram;perimeter=parallelogramPerimeter;whiteSpace=wrap;html=1;fixedSize=1;" parent="1" vertex="1">
          <mxGeometry x="250" y="250" width="120" height="60" as="geometry" />
        </mxCell>
        <mxCell id="7iwfmCRwSoaIV7nrB65S-6" value="Question 4" style="text;html=1;strokeColor=none;fillColor=none;align=center;verticalAlign=middle;whiteSpace=wrap;rounded=0;" parent="1" vertex="1">
          <mxGeometry x="580" y="10" width="60" height="30" as="geometry" />
        </mxCell>
        <mxCell id="DKR1l6CygNeG3CUcDdsO-1" value="No" style="text;html=1;align=center;verticalAlign=middle;resizable=0;points=[];autosize=1;strokeColor=none;fillColor=none;" parent="1" vertex="1">
          <mxGeometry x="200" y="250" width="40" height="30" as="geometry" />
        </mxCell>
        <mxCell id="Wyx_gIMBAFCTTK3UyjWR-3" style="edgeStyle=orthogonalEdgeStyle;rounded=0;orthogonalLoop=1;jettySize=auto;html=1;entryX=0.567;entryY=0;entryDx=0;entryDy=0;entryPerimeter=0;" parent="1" source="7iwfmCRwSoaIV7nrB65S-1" edge="1">
          <mxGeometry relative="1" as="geometry">
            <mxPoint x="308.03999999999996" y="420" as="targetPoint" />
          </mxGeometry>
        </mxCell>
        <mxCell id="9p4yJcwEM9npATU6JcFw-1" value="Start" style="ellipse;whiteSpace=wrap;html=1;" parent="1" vertex="1">
          <mxGeometry x="100" y="20" width="120" height="80" as="geometry" />
        </mxCell>
        <mxCell id="9p4yJcwEM9npATU6JcFw-2" value="End" style="ellipse;whiteSpace=wrap;html=1;" parent="1" vertex="1">
          <mxGeometry x="250" y="420" width="120" height="80" as="geometry" />
        </mxCell>
        <mxCell id="PiQ59HxwXbc3aRmyyvxq-1" value="input a" style="shape=parallelogram;perimeter=parallelogramPerimeter;whiteSpace=wrap;html=1;fixedSize=1;" vertex="1" parent="1">
          <mxGeometry x="100" y="150" width="120" height="60" as="geometry" />
        </mxCell>
      </root>
    </mxGraphModel>
  </diagram>
</mxfile>
